<?xml version="1.0" encoding="UTF-8" standalone="no"?>
<!DOCTYPE svg PUBLIC "-//W3C//DTD SVG 1.1//EN" "http://www.w3.org/Graphics/SVG/1.1/DTD/svg11.dtd">
<svg width="100%" height="100%" viewBox="0 0 1080 1080" version="1.1" xmlns="http://www.w3.org/2000/svg" xmlns:xlink="http://www.w3.org/1999/xlink" xml:space="preserve" xmlns:serif="http://www.serif.com/" style="fill-rule:evenodd;clip-rule:evenodd;stroke-linejoin:round;stroke-miterlimit:2;">
    <g transform="matrix(0.358413,0,0,-0.358413,-3.25905,1083.18)">
        <path d="M820,2199L744,2120L844,2020C898,1965 945,1922 948,1925C951,1928 915,1970 867,2018C819,2066 780,2112 780,2121C780,2140 881,2240 901,2240C909,2240 955,2202 1002,2155C1050,2108 1092,2070 1096,2070C1104,2070 908,2277 900,2277C897,2278 861,2242 820,2199Z" style="fill-rule:nonzero;"/>
        <path d="M983,2264C979,2253 1005,2220 1070,2155L1162,2062L1118,2032C1059,1991 967,1891 930,1827C845,1680 824,1491 874,1334C901,1250 959,1149 1013,1092L1045,1059L947,963C857,874 836,840 872,840C879,840 928,884 982,937C1036,990 1083,1031 1087,1026C1091,1022 1039,964 972,897C860,786 835,750 872,750C879,750 939,804 1005,870L1126,991L1176,964C1203,949 1226,936 1228,935C1229,934 1214,891 1195,840C1171,778 1162,744 1169,737C1189,717 1208,741 1239,828L1272,918L1304,905C1322,897 1376,885 1423,879C1522,864 1644,877 1730,909L1778,927L1866,839C1915,790 1960,750 1967,750C2002,750 1985,780 1905,860L1817,948L1856,968C1959,1021 2085,1173 2137,1306C2172,1398 2181,1572 2155,1670C2134,1751 2080,1856 2029,1913L1991,1957L2081,2046C2130,2095 2170,2138 2170,2143C2170,2147 2163,2153 2154,2157C2143,2161 2111,2136 2050,2075L1963,1988L1914,2026C1871,2058 1782,2105 1726,2124C1713,2128 1710,2135 1715,2148C1748,2225 1754,2250 1742,2262C1725,2279 1706,2257 1686,2193C1669,2142 1668,2141 1637,2148C1619,2152 1558,2155 1500,2155C1394,2154 1277,2129 1224,2095C1205,2082 1196,2088 1104,2181C1050,2235 1002,2280 997,2280C993,2280 987,2273 983,2264ZM1636,2124C1656,2119 1655,2112 1593,1947C1541,1810 1530,1772 1539,1758C1545,1748 1546,1740 1541,1740C1529,1740 1231,2051 1229,2065C1228,2078 1346,2118 1418,2130C1472,2138 1590,2135 1636,2124ZM1790,2072C1817,2062 1940,1981 1940,1973C1940,1969 1869,1894 1783,1808L1626,1650L1588,1687C1553,1721 1552,1725 1564,1749C1571,1763 1605,1850 1640,1942L1702,2109L1739,2094C1759,2085 1782,2076 1790,2072ZM1348,1869C1495,1719 1511,1700 1501,1682C1483,1648 1429,1498 1433,1493C1436,1491 1447,1504 1458,1522C1470,1540 1482,1553 1485,1550C1491,1546 1517,1602 1534,1654C1540,1672 1543,1671 1570,1645C1586,1629 1599,1616 1597,1616C1596,1615 1555,1577 1507,1530C1458,1483 1422,1454 1425,1465C1428,1476 1421,1465 1410,1440L1389,1395L1191,1599C1058,1738 990,1801 982,1796C975,1792 970,1782 972,1774C974,1767 1060,1673 1164,1565L1353,1368L1206,1222L1060,1075L1025,1115C973,1175 925,1257 899,1330C879,1385 876,1414 876,1520C876,1637 878,1650 908,1725C925,1769 963,1836 992,1875C1045,1944 1156,2043 1175,2038C1180,2036 1259,1960 1348,1869ZM2078,1801C2144,1678 2166,1515 2135,1382C2102,1242 1995,1088 1874,1008L1808,964L1452,1324L1664,1540L1830,1375C1921,1284 2001,1210 2007,1210C2045,1210 2018,1247 1864,1401L1695,1570L1843,1718C1924,1799 1990,1871 1990,1878C1990,1912 1941,1877 1811,1746C1731,1666 1662,1604 1657,1607C1652,1610 1721,1686 1811,1777L1975,1941L2011,1901C2030,1879 2061,1834 2078,1801ZM1535,1467C1443,1372 1410,1346 1410,1366C1410,1380 1625,1589 1632,1582C1636,1578 1593,1526 1535,1467ZM1400,1333C1400,1319 1115,1040 1100,1040C1092,1040 1153,1108 1235,1190C1373,1328 1400,1352 1400,1333ZM1595,1119C1717,993 1758,945 1748,939C1718,920 1595,900 1510,900C1436,900 1280,923 1280,934C1280,937 1383,1216 1402,1263C1408,1278 1416,1290 1420,1290C1424,1290 1503,1213 1595,1119ZM1359,1208C1353,1195 1340,1178 1330,1170C1320,1162 1297,1115 1279,1065C1261,1016 1243,971 1239,967C1231,956 1148,998 1152,1010C1155,1020 1361,1230 1367,1230C1369,1230 1366,1220 1359,1208Z" style="fill-rule:nonzero;"/>
        <path d="M1170,1983C1171,1969 1456,1680 1469,1680C1476,1680 1415,1750 1333,1835C1196,1978 1169,2003 1170,1983Z" style="fill-rule:nonzero;"/>
        <path d="M1057,1804C1085,1772 1174,1680 1254,1600C1357,1498 1400,1461 1400,1475C1400,1487 1334,1559 1223,1668C1039,1848 967,1907 1057,1804Z" style="fill-rule:nonzero;"/>
        <path d="M1650,1493C1650,1476 1695,1424 1839,1278C1950,1164 1993,1129 2005,1142C2008,1144 1928,1227 1830,1325C1731,1424 1650,1499 1650,1493Z" style="fill-rule:nonzero;"/>
        <path d="M1675,1180C1769,1086 1846,1014 1848,1020C1854,1037 1816,1081 1678,1218C1600,1294 1535,1350 1524,1350C1511,1350 1561,1294 1675,1180Z" style="fill-rule:nonzero;"/>
        <path d="M2030,1105C2030,1084 2070,1034 2140,965C2250,857 2249,860 2199,805C2176,780 2150,760 2141,760C2132,760 2078,807 2020,865C1927,959 1890,986 1890,962C1890,958 1946,899 2015,830L2140,705L2214,779L2289,853L2168,982C2060,1096 2030,1123 2030,1105Z" style="fill-rule:nonzero;"/>
    </g>
</svg>
