<?xml version="1.0" encoding="UTF-8" standalone="no"?><!DOCTYPE svg PUBLIC "-//W3C//DTD SVG 1.1//EN" "http://www.w3.org/Graphics/SVG/1.1/DTD/svg11.dtd"><svg width="2500px" height="2500px" version="1.1" xmlns="http://www.w3.org/2000/svg" xmlns:xlink="http://www.w3.org/1999/xlink" xml:space="preserve" xmlns:serif="http://www.serif.com/" style="fill-rule:evenodd;clip-rule:evenodd;stroke-linejoin:round;stroke-miterlimit:2;"><g id="g24"><path id="path10" d="M221.104,210.282l-113.497,117.978l149.339,149.339c80.643,82.136 150.832,146.352 155.312,141.871c4.48,-4.48 -49.282,-67.202 -120.964,-138.885c-71.683,-71.682 -129.925,-140.378 -129.925,-153.818c-0,-28.375 150.832,-177.714 180.7,-177.714c11.947,0 80.643,56.749 150.832,126.938c71.682,70.19 134.405,126.938 140.378,126.938c11.947,0 -280.757,-309.131 -292.704,-309.131c-4.48,-1.493 -58.242,52.269 -119.471,116.484Z" style="fill-rule:nonzero;"/><path id="path12" d="M464.526,113.212c-5.973,16.427 32.855,65.709 129.925,162.779l137.392,138.885l-65.709,44.802c-88.11,61.229 -225.502,210.568 -280.757,306.144c-126.938,219.528 -158.299,501.779 -83.63,736.24c40.322,125.445 126.938,276.277 207.581,361.4l47.789,49.282l-146.352,143.365c-134.405,132.912 -165.766,183.687 -112.005,183.687c10.454,-0 83.63,-65.709 164.273,-144.859c80.643,-79.149 150.832,-140.378 156.806,-132.911c5.973,5.973 -71.683,92.59 -171.74,192.647c-167.259,165.766 -204.594,219.528 -149.339,219.528c10.454,-0 100.057,-80.643 198.621,-179.207l180.7,-180.7l74.669,40.322c40.322,22.401 74.67,41.815 77.656,43.308c1.494,1.493 -20.907,65.709 -49.281,141.872c-35.842,92.59 -49.282,143.365 -38.828,153.819c29.867,29.868 58.242,-5.974 104.537,-135.898l49.281,-134.405l47.789,19.414c26.881,11.947 107.524,29.867 177.713,38.828c147.845,22.401 330.039,2.987 458.47,-44.802l71.683,-26.881l131.418,131.418c73.176,73.176 140.378,132.912 150.832,132.912c52.268,-0 26.881,-44.802 -92.59,-164.273l-131.418,-131.418l58.242,-29.868c153.819,-79.149 341.986,-306.144 419.642,-504.765c52.268,-137.391 65.709,-397.241 26.881,-543.593c-31.361,-120.964 -112.004,-277.77 -188.167,-362.893l-56.749,-65.709l134.405,-132.911c73.176,-73.176 132.911,-137.392 132.911,-144.859c0,-5.974 -10.453,-14.934 -23.894,-20.907c-16.427,-5.974 -64.215,31.361 -155.312,122.457l-129.925,129.925l-73.176,-56.749c-64.215,-47.788 -197.127,-117.977 -280.757,-146.352c-19.414,-5.973 -23.894,-16.427 -16.427,-35.841c49.282,-114.991 58.242,-152.325 40.322,-170.246c-25.388,-25.388 -53.762,7.467 -83.63,103.044c-25.388,76.162 -26.881,77.656 -73.176,67.202c-26.881,-5.973 -117.978,-10.454 -204.594,-10.454c-158.299,1.494 -333.026,38.828 -412.175,89.604c-28.374,19.414 -41.815,10.453 -179.207,-128.432c-80.643,-80.643 -152.325,-147.845 -159.792,-147.845c-5.974,-0 -14.934,10.454 -20.908,23.894Zm975.183,209.074c29.867,7.467 28.374,17.921 -64.216,264.33c-77.656,204.594 -94.084,261.343 -80.643,282.25c8.96,14.934 10.454,26.881 2.987,26.881c-17.921,0 -462.95,-464.443 -465.937,-485.351c-1.494,-19.414 174.726,-79.149 282.25,-97.07c80.643,-11.947 256.863,-7.467 325.559,8.96Zm229.981,77.657c40.322,14.933 224.008,135.898 224.008,147.845c0,5.973 -106.03,117.977 -234.462,246.409l-234.461,235.955l-56.749,-55.255c-52.269,-50.775 -53.762,-56.749 -35.841,-92.59c10.453,-20.908 61.229,-150.832 113.497,-288.224l92.59,-249.396l55.255,22.401c29.868,13.44 64.216,26.881 76.163,32.855Zm-660.077,303.157c219.528,224.008 243.422,252.383 228.488,279.264c-26.881,50.775 -107.524,274.783 -101.55,282.25c4.48,2.987 20.907,-16.427 37.335,-43.308c17.92,-26.881 35.841,-46.295 40.321,-41.815c8.96,5.973 47.788,-77.656 73.176,-155.313c8.96,-26.88 13.44,-25.387 53.762,13.441c23.894,23.894 43.308,43.308 40.321,43.308c-1.493,1.494 -62.722,58.242 -134.404,128.432c-73.176,70.189 -126.938,113.497 -122.458,97.07c4.48,-16.428 -5.974,-0 -22.401,37.334l-31.361,67.203l-295.691,-304.651c-198.62,-207.581 -300.171,-301.664 -312.118,-294.198c-10.454,5.974 -17.921,20.908 -14.934,32.855c2.987,10.454 131.418,150.832 286.731,312.118l282.25,294.197l-219.528,218.035l-218.035,219.528l-52.268,-59.736c-77.656,-89.603 -149.339,-212.061 -188.167,-321.078c-29.868,-82.136 -34.348,-125.445 -34.348,-283.744c0,-174.726 2.987,-194.14 47.788,-306.144c25.388,-65.709 82.137,-165.766 125.445,-224.008c79.15,-103.044 244.916,-250.889 273.29,-243.422c7.467,2.986 125.444,116.484 258.356,252.382Zm1090.17,101.551c98.563,183.686 131.418,427.108 85.123,625.729c-49.282,209.074 -209.074,439.056 -389.774,558.527l-98.564,65.709l-531.646,-537.62l316.598,-322.571l247.903,246.409c135.898,135.898 255.369,246.409 264.329,246.409c56.749,-0 16.428,-55.256 -213.554,-285.237l-252.383,-252.383l221.022,-221.021c120.964,-120.965 219.528,-228.489 219.528,-238.942c-0,-50.775 -73.176,1.493 -267.317,197.127c-119.471,119.471 -222.514,212.061 -229.981,207.581c-7.467,-4.48 95.576,-117.978 229.981,-253.876l244.916,-244.916l53.762,59.736c28.374,32.854 74.669,100.057 100.057,149.339Zm-810.91,498.791c-137.391,141.872 -186.673,180.7 -186.673,150.832c-0,-20.907 321.078,-333.025 331.532,-322.572c5.974,5.974 -58.242,83.63 -144.859,171.74Zm-201.607,200.114c0,20.907 -425.615,437.562 -448.016,437.562c-11.947,0 79.149,-101.55 201.607,-224.008c206.088,-206.087 246.409,-241.928 246.409,-213.554Zm291.211,319.585c182.193,188.167 243.422,259.849 228.488,268.81c-44.802,28.374 -228.488,58.242 -355.426,58.242c-110.511,-0 -343.479,-34.348 -343.479,-50.776c-0,-4.48 153.818,-421.135 182.193,-491.324c8.96,-22.401 20.907,-40.321 26.881,-40.321c5.973,-0 123.951,114.99 261.343,255.369Zm-352.44,-132.912c-8.96,19.414 -28.374,44.802 -43.308,56.749c-14.934,11.947 -49.282,82.136 -76.163,156.806c-26.881,73.176 -53.762,140.378 -59.735,146.352c-11.947,16.427 -135.899,-46.295 -129.925,-64.216c4.48,-14.934 312.118,-328.545 321.078,-328.545c2.987,-0 -1.493,14.934 -11.947,32.854Z" style="fill-rule:nonzero;"/><path id="path14" d="M743.79,532.854c1.493,20.907 427.109,452.496 446.523,452.496c10.454,0 -80.643,-104.537 -203.101,-231.475c-204.594,-213.554 -244.915,-250.889 -243.422,-221.021Z" style="fill-rule:nonzero;"/><path id="path16" d="M575.037,800.17c41.815,47.789 174.727,185.18 294.198,304.651c153.818,152.326 218.034,207.581 218.034,186.674c0,-17.921 -98.563,-125.445 -264.33,-288.224c-274.783,-268.81 -382.307,-356.92 -247.902,-203.101Z" style="fill-rule:nonzero;"/><path id="path18" d="M1460.62,1264.61c-0,25.387 67.202,103.044 282.25,321.078c165.766,170.246 229.982,222.515 247.903,203.101c4.48,-2.987 -114.991,-126.938 -261.343,-273.29c-147.846,-147.845 -268.81,-259.849 -268.81,-250.889Z" style="fill-rule:nonzero;"/><path id="path20" d="M1497.95,1732.04c140.378,140.379 255.369,247.902 258.356,238.942c8.96,-25.387 -47.789,-91.096 -253.876,-295.691c-116.484,-113.497 -213.555,-197.127 -229.982,-197.127c-19.414,0 55.255,83.63 225.502,253.876Z" style="fill-rule:nonzero;"/><path id="path22" d="M2028.1,1844.05c0,31.361 59.736,106.031 164.273,209.074c164.272,161.286 162.779,156.806 88.11,238.942c-34.348,37.335 -73.176,67.203 -86.617,67.203c-13.44,-0 -94.083,-70.189 -180.7,-156.806c-138.885,-140.378 -194.14,-180.7 -194.14,-144.858c-0,5.973 83.63,94.083 186.673,197.127l186.674,186.673l110.511,-110.51l112.004,-110.511l-180.7,-192.647c-161.286,-170.246 -206.088,-210.568 -206.088,-183.687Z" style="fill-rule:nonzero;"/></g></svg>